<?xml version="1.0" encoding="UTF-8" standalone="no"?>
<svg
   version="1.0"
   width="626.000000pt"
   height="501.000000pt"
   viewBox="0 0 626.000000 501.000000"
   preserveAspectRatio="xMidYMid meet"
   id="svg3"
   sodipodi:docname="1.svg"
   xml:space="preserve"
   inkscape:version="1.4.2 (ebf0e94, 2025-05-08)"
   xmlns:inkscape="http://www.inkscape.org/namespaces/inkscape"
   xmlns:sodipodi="http://sodipodi.sourceforge.net/DTD/sodipodi-0.dtd"
   xmlns="http://www.w3.org/2000/svg"
   xmlns:svg="http://www.w3.org/2000/svg"><defs
     id="defs3"><inkscape:path-effect
       effect="fillet_chamfer"
       id="path-effect16"
       is_visible="true"
       lpeversion="1"
       nodesatellites_param="F,0,0,1,0,0,0,1 @ F,0,0,1,0,0,0,1 @ F,0,0,1,0,0,0,1 @ F,0,0,1,0,0,0,1 @ F,0,0,1,0,0,0,1 @ F,0,0,1,0,0,0,1 @ F,0,0,1,0,0,0,1 @ F,0,0,1,0,0,0,1 @ F,0,0,1,0,0,0,1 @ F,0,0,1,0,73.576928,0,1 @ F,0,0,1,0,0,0,1 @ F,0,0,1,0,0,0,1 @ F,0,0,1,0,0,0,1 @ F,0,0,1,0,0,0,1 @ F,0,0,1,0,0,0,1 @ F,0,0,1,0,0,0,1 @ F,0,0,1,0,0,0,1 @ F,0,0,1,0,0,0,1 @ F,0,0,1,0,0,0,1 @ F,0,0,1,0,0,0,1 @ F,0,0,1,0,0,0,1 | F,0,0,1,0,0,0,1 @ F,0,0,1,0,0,0,1 @ F,0,0,1,0,0,0,1 @ F,0,0,1,0,0,0,1 @ F,0,0,1,0,0,0,1 @ F,0,0,1,0,40.59222,0,1 @ F,0,0,1,0,0,0,1 @ F,0,0,1,0,0,0,1 @ F,0,0,1,0,0,0,1 @ F,0,0,1,0,0,0,1 @ F,0,0,1,0,43.298635,0,1 @ F,0,0,1,0,0,0,1 | F,0,0,1,0,0,0,1 @ F,0,0,1,0,0,0,1 @ F,0,0,1,0,0,0,1 @ F,0,0,1,0,0,0,1 @ F,0,0,1,0,0,0,1 @ F,0,0,1,0,0,0,1"
       radius="0"
       unit="px"
       method="auto"
       mode="F"
       chamfer_steps="1"
       flexible="false"
       use_knot_distance="true"
       apply_no_radius="true"
       apply_with_radius="true"
       only_selected="false"
       hide_knots="false" /><inkscape:path-effect
       effect="fillet_chamfer"
       id="path-effect15"
       is_visible="true"
       lpeversion="1"
       nodesatellites_param="F,0,0,1,0,0,0,1 @ F,0,0,1,0,0,0,1 @ F,0,0,1,0,0,0,1 @ F,0,0,1,0,0,0,1 @ F,0,0,1,0,0,0,1 @ F,0,0,1,0,0,0,1 @ F,0,0,1,0,0,0,1 @ F,0,0,1,0,0,0,1 @ F,0,0,1,0,0,0,1 @ F,0,0,1,0,0,0,1 @ F,0,0,1,0,0,0,1 @ F,0,0,1,0,0,0,1 @ F,0,0,1,0,0,0,1 @ F,0,0,1,0,0,0,1 @ F,0,0,1,0,0,0,1 @ F,0,0,1,0,0,0,1 @ F,0,0,1,0,0,0,1 @ F,0,0,1,0,0,0,1 @ F,0,0,1,0,0,0,1 @ F,0,0,1,0,0,0,1 @ F,0,0,1,0,0,0,1 @ F,0,0,1,0,0,0,1 @ F,0,0,1,0,0,0,1 @ F,0,0,1,0,0,0,1 @ F,0,0,1,0,0,0,1 @ F,0,0,1,0,0,0,1 @ F,0,0,1,0,0,0,1 @ F,0,0,1,0,0,0,1 @ F,0,0,1,0,0,0,1 @ F,0,0,1,0,0,0,1 @ F,0,0,1,0,0,0,1 @ F,0,0,1,0,0,0,1 @ F,0,0,1,0,0,0,1 @ F,0,0,1,0,0,0,1 @ F,0,0,1,0,0,0,1 @ F,0,0,1,0,0,0,1 @ F,0,0,1,0,0,0,1 @ F,0,0,1,0,0,0,1 @ F,0,0,1,0,0,0,1 @ F,0,0,1,0,0,0,1 @ F,0,0,1,0,0,0,1 @ F,0,0,1,0,0,0,1 @ F,0,0,1,0,0,0,1 @ F,0,0,1,0,0,0,1 @ F,0,0,1,0,0,0,1 @ F,0,0,1,0,0,0,1 @ F,0,0,1,0,0,0,1 @ F,0,0,1,0,0,0,1 @ F,0,0,1,0,0,0,1 @ F,0,0,1,0,0,0,1 @ F,0,0,1,0,0,0,1 @ F,0,0,1,0,0,0,1 @ F,0,0,1,0,0,0,1 @ F,0,0,1,0,0,0,1 @ F,0,0,1,0,0,0,1 @ F,0,0,1,0,0,0,1 @ F,0,0,1,0,0,0,1 @ F,0,0,1,0,0,0,1 @ F,0,0,1,0,0,0,1 @ F,0,0,1,0,0,0,1 @ F,0,0,1,0,0,0,1"
       radius="0"
       unit="px"
       method="auto"
       mode="F"
       chamfer_steps="1"
       flexible="false"
       use_knot_distance="true"
       apply_no_radius="true"
       apply_with_radius="true"
       only_selected="false"
       hide_knots="false" /><inkscape:path-effect
       effect="fillet_chamfer"
       id="path-effect14"
       is_visible="true"
       lpeversion="1"
       nodesatellites_param="F,0,0,1,0,0,0,1 @ F,0,0,1,0,0,0,1 @ F,0,0,1,0,0,0,1 @ F,0,0,1,0,0,0,1 @ F,0,0,1,0,0,0,1 @ F,0,0,1,0,0,0,1 @ F,0,0,1,0,0,0,1 @ F,0,0,1,0,0,0,1 @ F,0,0,1,0,0,0,1 @ F,0,0,1,0,0,0,1 @ F,0,0,1,0,0,0,1 @ F,0,0,1,0,0,0,1 @ F,0,0,1,0,0,0,1 @ F,0,0,1,0,0,0,1 @ F,0,0,1,0,0,0,1 @ F,0,0,1,0,0,0,1 @ F,0,0,1,0,0,0,1 @ F,0,0,1,0,0,0,1 @ F,0,0,1,0,0,0,1 @ F,0,0,1,0,0,0,1 @ F,0,0,1,0,0,0,1 | F,0,0,1,0,0,0,1 @ F,0,0,1,0,0,0,1 @ F,0,0,1,0,0,0,1 @ F,0,0,1,0,0,0,1 @ F,0,0,1,0,0,0,1 @ F,0,0,1,0,0,0,1 @ F,0,0,1,0,0,0,1 @ F,0,0,1,0,0,0,1 @ F,0,0,1,0,0,0,1 @ F,0,0,1,0,0,0,1 @ F,0,0,1,0,0,0,1 @ F,0,0,1,0,0,0,1 | F,0,0,1,0,0,0,1 @ F,0,0,1,0,0,0,1 @ F,0,0,1,0,0,0,1 @ F,0,0,1,0,0,0,1 @ F,0,0,1,0,0,0,1 @ F,0,0,1,0,0,0,1"
       radius="0"
       unit="px"
       method="auto"
       mode="F"
       chamfer_steps="1"
       flexible="false"
       use_knot_distance="true"
       apply_no_radius="true"
       apply_with_radius="true"
       only_selected="false"
       hide_knots="false" /><inkscape:path-effect
       effect="fillet_chamfer"
       id="path-effect13"
       is_visible="true"
       lpeversion="1"
       nodesatellites_param="F,0,0,1,0,0,0,1 @ F,0,0,1,0,0,0,1 @ F,0,0,1,0,0,0,1 @ F,0,0,1,0,0,0,1 @ F,0,0,1,0,0,0,1 @ F,0,0,1,0,0,0,1 @ F,0,0,1,0,0,0,1 @ F,0,0,1,0,0,0,1 @ F,0,0,1,0,0,0,1 @ F,0,0,1,0,0,0,1 @ F,0,0,1,0,0,0,1 @ F,0,0,1,0,0,0,1 @ F,0,0,1,0,0,0,1 @ F,0,0,1,0,0,0,1 @ F,0,0,1,0,0,0,1 @ F,0,0,1,0,0,0,1 @ F,0,0,1,0,0,0,1 @ F,0,0,1,0,0,0,1 @ F,0,0,1,0,0,0,1 @ F,0,0,1,0,0,0,1 @ F,0,0,1,0,0,0,1 @ F,0,0,1,0,0,0,1 @ F,0,0,1,0,0,0,1 @ F,0,0,1,0,0,0,1 @ F,0,0,1,0,0,0,1 @ F,0,0,1,0,0,0,1 @ F,0,0,1,0,0,0,1 @ F,0,0,1,0,0,0,1 @ F,0,0,1,0,0,0,1 @ F,0,0,1,0,0,0,1 @ F,0,0,1,0,0,0,1 @ F,0,0,1,0,0,0,1 @ F,0,0,1,0,0,0,1 @ F,0,0,1,0,0,0,1 @ F,0,0,1,0,0,0,1 @ F,0,0,1,0,0,0,1 @ F,0,0,1,0,0,0,1 @ F,0,0,1,0,0,0,1 @ F,0,0,1,0,0,0,1 @ F,0,0,1,0,0,0,1 @ F,0,0,1,0,0,0,1 @ F,0,0,1,0,0,0,1 @ F,0,0,1,0,0,0,1 @ F,0,0,1,0,0,0,1 @ F,0,0,1,0,0,0,1 @ F,0,0,1,0,0,0,1 @ F,0,0,1,0,0,0,1 @ F,0,0,1,0,0,0,1 @ F,0,0,1,0,0,0,1 @ F,0,0,1,0,0,0,1 @ F,0,0,1,0,0,0,1 @ F,0,0,1,0,0,0,1 @ F,0,0,1,0,0,0,1 @ F,0,0,1,0,0,0,1 @ F,0,0,1,0,0,0,1 @ F,0,0,1,0,0,0,1 @ F,0,0,1,0,0,0,1 @ F,0,0,1,0,0,0,1 @ F,0,0,1,0,0,0,1 @ F,0,0,1,0,0,0,1 @ F,0,0,1,0,0,0,1"
       radius="0"
       unit="px"
       method="auto"
       mode="F"
       chamfer_steps="1"
       flexible="false"
       use_knot_distance="true"
       apply_no_radius="true"
       apply_with_radius="true"
       only_selected="false"
       hide_knots="false" /><inkscape:path-effect
       effect="fillet_chamfer"
       id="path-effect12"
       is_visible="true"
       lpeversion="1"
       nodesatellites_param="F,0,0,1,0,0,0,1 @ F,0,0,1,0,0,0,1 @ F,0,0,1,0,0,0,1 @ F,0,0,1,0,0,0,1 @ F,0,0,1,0,0,0,1 @ F,0,0,1,0,0,0,1 @ F,0,0,1,0,0,0,1 @ F,0,0,1,0,0,0,1 @ F,0,0,1,0,0,0,1 @ F,0,0,1,0,0,0,1 @ F,0,0,1,0,0,0,1 @ F,0,0,1,0,0,0,1 @ F,0,0,1,0,0,0,1 @ F,0,0,1,0,0,0,1 @ F,0,0,1,0,0,0,1 @ F,0,0,1,0,0,0,1 @ F,0,0,1,0,0,0,1 @ F,0,0,1,0,0,0,1 @ F,0,0,1,0,0,0,1 @ F,0,0,1,0,0,0,1 @ F,0,0,1,0,0,0,1 | F,0,0,1,0,0,0,1 @ F,0,0,1,0,0,0,1 @ F,0,0,1,0,0,0,1 @ F,0,0,1,0,0,0,1 @ F,0,0,1,0,0,0,1 @ F,0,0,1,0,0,0,1 @ F,0,0,1,0,0,0,1 @ F,0,0,1,0,0,0,1 @ F,0,0,1,0,0,0,1 @ F,0,0,1,0,0,0,1 @ F,0,0,1,0,0,0,1 @ F,0,0,1,0,0,0,1 | F,0,0,1,0,0,0,1 @ F,0,0,1,0,0,0,1 @ F,0,0,1,0,0,0,1 @ F,0,0,1,0,0,0,1 @ F,0,0,1,0,0,0,1 @ F,0,0,1,0,0,0,1"
       radius="0"
       unit="px"
       method="auto"
       mode="F"
       chamfer_steps="1"
       flexible="false"
       use_knot_distance="true"
       apply_no_radius="true"
       apply_with_radius="true"
       only_selected="false"
       hide_knots="false" /><inkscape:path-effect
       effect="fillet_chamfer"
       id="path-effect11"
       is_visible="true"
       lpeversion="1"
       nodesatellites_param="F,0,0,1,0,0,0,1 @ F,0,0,1,0,0,0,1 @ F,0,0,1,0,0,0,1 @ F,0,0,1,0,0,0,1 @ F,0,0,1,0,0,0,1 @ F,0,0,1,0,0,0,1 @ F,0,0,1,0,0,0,1 @ F,0,0,1,0,0,0,1 @ F,0,0,1,0,0,0,1 @ F,0,0,1,0,0,0,1 @ F,0,0,1,0,0,0,1 @ F,0,0,1,0,0,0,1 @ F,0,0,1,0,0,0,1 @ F,0,0,1,0,0,0,1 @ F,0,0,1,0,0,0,1 @ F,0,0,1,0,0,0,1 @ F,0,0,1,0,0,0,1 @ F,0,0,1,0,0,0,1 @ F,0,0,1,0,0,0,1 @ F,0,0,1,0,0,0,1 @ F,0,0,1,0,0,0,1 @ F,0,0,1,0,0,0,1 @ F,0,0,1,0,0,0,1 @ F,0,0,1,0,0,0,1 @ F,0,0,1,0,0,0,1 @ F,0,0,1,0,0,0,1 @ F,0,0,1,0,0,0,1 @ F,0,0,1,0,0,0,1 @ F,0,0,1,0,0,0,1 @ F,0,0,1,0,0,0,1 @ F,0,0,1,0,0,0,1 @ F,0,0,1,0,0,0,1 @ F,0,0,1,0,0,0,1 @ F,0,0,1,0,0,0,1 @ F,0,0,1,0,0,0,1 @ F,0,0,1,0,0,0,1 @ F,0,0,1,0,0,0,1 @ F,0,0,1,0,0,0,1 @ F,0,0,1,0,0,0,1 @ F,0,0,1,0,0,0,1 @ F,0,0,1,0,0,0,1 @ F,0,0,1,0,0,0,1 @ F,0,0,1,0,0,0,1 @ F,0,0,1,0,0,0,1 @ F,0,0,1,0,0,0,1 @ F,0,0,1,0,0,0,1 @ F,0,0,1,0,0,0,1 @ F,0,0,1,0,0,0,1 @ F,0,0,1,0,0,0,1 @ F,0,0,1,0,0,0,1 @ F,0,0,1,0,0,0,1 @ F,0,0,1,0,0,0,1 @ F,0,0,1,0,0,0,1 @ F,0,0,1,0,0,0,1 @ F,0,0,1,0,0,0,1 @ F,0,0,1,0,0,0,1 @ F,0,0,1,0,0,0,1 @ F,0,0,1,0,0,0,1 @ F,0,0,1,0,0,0,1 @ F,0,0,1,0,0,0,1 @ F,0,0,1,0,0,0,1"
       radius="0"
       unit="px"
       method="auto"
       mode="F"
       chamfer_steps="1"
       flexible="false"
       use_knot_distance="true"
       apply_no_radius="true"
       apply_with_radius="true"
       only_selected="false"
       hide_knots="false" /></defs><sodipodi:namedview
     id="namedview3"
     pagecolor="#ffffff"
     bordercolor="#000000"
     borderopacity="0.25"
     inkscape:showpageshadow="2"
     inkscape:pageopacity="0.0"
     inkscape:pagecheckerboard="0"
     inkscape:deskcolor="#d1d1d1"
     inkscape:document-units="pt"
     inkscape:zoom="0.70710678"
     inkscape:cx="127.98633"
     inkscape:cy="317.49095"
     inkscape:window-width="1520"
     inkscape:window-height="777"
     inkscape:window-x="1920"
     inkscape:window-y="0"
     inkscape:window-maximized="1"
     inkscape:current-layer="g3"
     showgrid="false" /><g
     inkscape:groupmode="layer"
     id="layer1"
     inkscape:label="Layer 1"><g
       transform="matrix(0.1,0,0,-0.1,-6.7004207,554.70074)"
       fill="#000000"
       stroke="none"
       id="g3"><path
         id="path1"
         d="m 1031.1533,2677.1254 c -15.8344,16.4923 -17.8314,0.08 -20.9862,0.1025 -25.34584,-34.216 -20.16125,-82.9015 -20.16125,-174.2285 0,-272 125.99805,-507.9922 322.99805,-601.9922 106,-51 201,-64.0078 420,-58.0078 207,5 265.9912,14.9951 365.9912,64.9951 60,30 170,132.0107 195,181.0107 14,27 22.001,30.9961 56.001,30.9961 144,0 277,75.0059 330,186.0059 39.9979,82.4446 38.2328,179.2452 0.1532,277.708 -14.6466,37.8718 -59.5716,85.8903 -99.3134,93.4693 -9.2018,1.7548 -18.5607,2.6909 -28.2941,2.7511 -40.5062,0.2505 -73.6335,-15.6694 -116.5941,-34.2512 l -22.2162,-12.6948 c -26.8038,-19.5399 -48.6442,73.7299 -65.8009,58.9893 -9.5418,-2.8053 5.4907,-5.0018 13.0036,-42.3156 23.235,-210.524 -8.8989,-691.361 -423.9362,-765.9496 -112,-24 -401.9726,-20.9941 -503.9726,6.0059 -103,27 -166.0313,73.2788 -230.0313,137.2788 -103,105 -169.2759,245.6801 -179.2759,424.6801 l 3.2749,109.3287 c -2.8515,75.6034 19.9946,99.6259 4.1602,116.1182 m 1525.5469,-17.861 c 17.1094,-0.6718 30.5903,-1.7958 42.3403,-8.0458 12,-6 32.6974,-11.6794 59.9557,-66.8588 61,-132 44.5498,-293.0214 -119.5283,-384.8525 -40,-21 -124.2789,-49.3783 -164.2789,-49.3783 -16.5932,0 -27.1287,2.3508 -32.4399,8.1008 -14.4921,15.6894 12.4969,56.4331 33.0137,62.6936 10.8614,3.3142 25.2103,6.2782 44.2382,10.0838 109,21 176.0009,84.9922 191.0009,181.9922 3.0338,61.9436 6.9922,68.0039 -13.0078,119.0039 -21,57 -101.001,58.0029 -161.001,3.0029 -14.6313,-13.6559 -32.9135,-3.9871 -33.3013,19.8788 -0.3136,19.2953 2.4572,35.6741 8.3111,42.1134 27,33 93.3692,64.2817 144.6973,62.266 z m -34.3693,-108.7868 c 11.4219,0.25 30.9788,-1.5806 40.2625,-12.075 29.2393,-33.0524 29.2799,-87.4997 22.2799,-130.4997 -10,-58 -70.4767,-119.6754 -139.4767,-140.6754 -30,-9 -68.3624,0.393 -71.3624,2.393 -8,9 8.773,163.5053 26.773,198.5053 26.25,52.5 87.2581,81.6018 121.5237,82.3518 z"
         sodipodi:nodetypes="ccsccscsccaccccccccccscccscccccccssaccccs"
         style="color:#000000;font-style:normal;font-variant:normal;font-weight:normal;font-stretch:normal;font-size:medium;line-height:normal;font-family:sans-serif;font-variant-ligatures:normal;font-variant-position:normal;font-variant-caps:normal;font-variant-numeric:normal;font-variant-alternates:normal;font-variant-east-asian:normal;font-feature-settings:normal;font-variation-settings:normal;text-indent:0;text-align:start;text-decoration-line:none;text-decoration-style:solid;text-decoration-color:#000000;letter-spacing:normal;word-spacing:normal;text-transform:none;writing-mode:lr-tb;direction:ltr;text-orientation:mixed;dominant-baseline:auto;baseline-shift:baseline;text-anchor:start;white-space:normal;shape-padding:0;shape-margin:0;inline-size:0;clip-rule:nonzero;display:inline;overflow:visible;visibility:visible;isolation:auto;mix-blend-mode:normal;color-interpolation:sRGB;color-interpolation-filters:linearRGB;solid-color:#000000;solid-opacity:1;vector-effect:none;fill:#000000;fill-opacity:1;fill-rule:nonzero;stroke:none;stroke-linecap:butt;stroke-linejoin:miter;stroke-miterlimit:4;stroke-dasharray:none;stroke-dashoffset:0;stroke-opacity:1;-inkscape-stroke:none;color-rendering:auto;image-rendering:auto;shape-rendering:auto;text-rendering:auto;enable-background:accumulate;stop-color:#000000;stop-opacity:1"
         inkscape:path-effect="#path-effect16"
         inkscape:original-d="m 1031.1533,2677.1254 c -15.8344,16.4923 -17.8314,0.08 -20.9862,0.1025 -25.34584,-34.216 -20.16125,-82.9015 -20.16125,-174.2285 0,-272 125.99805,-507.9922 322.99805,-601.9922 106,-51 201,-64.0078 420,-58.0078 207,5 265.9912,14.9951 365.9912,64.9951 60,30 170,132.0107 195,181.0107 14,27 22.001,30.9961 56.001,30.9961 144,0 277,75.0059 330,186.0059 49,101 35.3228,223.5452 -31.0143,344.2974 -33.6517,18.7586 -62.8108,29.4231 -96.44,29.631 -40.5062,0.2505 -73.6335,-15.6694 -116.5941,-34.2512 l -22.2162,-12.6948 c -26.8038,-19.5399 -48.6442,73.7299 -65.8009,58.9893 -9.5418,-2.8053 5.4907,-5.0018 13.0036,-42.3156 23.235,-210.524 -8.8989,-691.361 -423.9362,-765.9496 -112,-24 -401.9726,-20.9941 -503.9726,6.0059 -103,27 -166.0313,73.2788 -230.0313,137.2788 -103,105 -169.2759,245.6801 -179.2759,424.6801 l 3.2749,109.3287 c -2.8515,75.6034 19.9946,99.6259 4.1602,116.1182 m 1525.5469,-17.861 c 17.1094,-0.6718 30.5903,-1.7958 42.3403,-8.0458 12,-6 32.6974,-11.6794 59.9557,-66.8588 61,-132 44.5498,-293.0214 -119.5283,-384.8525 -40,-21 -124.2789,-49.3783 -164.2789,-49.3783 -37,0 -43.8804,11.6887 -29.8804,46.6887 7,20 24.6924,24.1895 74.6924,34.1895 109,21 176.0009,84.9922 191.0009,181.9922 3.0338,61.9436 6.9922,68.0039 -13.0078,119.0039 -21,57 -101.001,58.0029 -161.001,3.0029 -15,-14 -26.9931,-25.0127 -27.9931,-23.0127 -8,34 -6.9971,74.0049 3.0029,85.0049 27,33 93.3692,64.2817 144.6973,62.266 z m -34.3693,-108.7868 c 11.4219,0.25 30.9788,-1.5806 40.2625,-12.075 29.2393,-33.0524 29.2799,-87.4997 22.2799,-130.4997 -10,-58 -70.4767,-119.6754 -139.4767,-140.6754 -30,-9 -68.3624,0.393 -71.3624,2.393 -8,9 8.773,163.5053 26.773,198.5053 26.25,52.5 87.2581,81.6018 121.5237,82.3518 z"
         transform="matrix(2.930395,0,0,3.1633602,-2037.5379,-5119.0499)" /><path
         d="m 1246.3634,3652.1692 c -103.3582,-18.9253 -199.1871,-22.0286 -256.15672,-98.0719 -68.3666,-91.257 -191.83539,-450.6631 -42.3172,-349.119 111.81422,75.9374 15.3219,323.7627 290.43292,327.9326 56.1864,161.6049 35.0487,94.0872 8.041,119.2583 z"
         id="path5-2"
         style="font-variation-settings:normal;vector-effect:none;fill:#000000;fill-opacity:1;stroke:none;stroke-width:0.947866;stroke-linecap:butt;stroke-linejoin:miter;stroke-miterlimit:4;stroke-dasharray:none;stroke-dashoffset:0;stroke-opacity:1;-inkscape-stroke:none;stop-color:#000000"
         sodipodi:nodetypes="cascc" /><path
         d="m 2858.3147,2475.9105 c -126.0068,-50.6139 -290.1091,-196.1284 -360.4385,-319.4994 -114.2854,-199.2917 -49.8166,-474.504 131.8678,-569.4048 301.8307,-155.0048 747.2506,75.9206 841.0233,433.3804 84.9815,332.1526 -263.7356,591.5482 -612.4526,455.5238 z m 372.5482,-74.6035 c 111.2161,-128.3703 -172.513,-174.8583 -296.7555,-245.6044 -127.5071,-72.6052 -295.619,-227.0773 -337.4298,-292.0169 -18.492,-28.7213 -63.9259,-15.7499 -71.3739,-11.6158 -51.5967,28.6414 25.3659,272.468 107.417,370.5323 126.6632,175.6811 512.4215,319.5388 598.1422,178.7048 z m 172.5883,-331.0152 c -23.4433,-123.371 -199.0448,-344.7063 -327.9821,-404.8103 -108.4247,-50.6137 -395.6865,-22.0536 -395.6865,25.3969 0,56.9404 140.437,158.6868 222.4882,177.6669 216.8491,47.4505 277.1672,166.7996 350.4271,264.8637 41.0255,56.9406 105.2861,94.5044 126.5707,85.9799 31.7371,-12.7113 35.9042,-95.32 24.1826,-149.0971 z m -263.0792,0.8481 c -6.3836,-11.5168 -80.9346,-94.2061 -136.6121,-106.8596 -52.7471,-15.8169 -142.9953,-13.2482 -184.0209,-25.9015 -67.399,-18.9802 -52.0423,40.172 0.7048,74.969 89.2871,82.11 358.2559,126.9403 319.9282,57.7921 z"
         id="path3"
         sodipodi:nodetypes="ccccccsssccccsccscscccs"
         style="stroke-width:3.04466" /><path
         d="m 4996.3783,3082.3451 c -2.661,113.1325 -18.8265,210.5436 -82.6529,280.3143 -70.3312,76.8815 -286.892,179.9221 -284.9691,102.1852 3.5264,-142.5528 296.2335,-44.3149 273.0097,-352.7606 140.1962,-83.0098 67.6924,-55.0197 94.6123,-29.7389 z"
         id="path5-2-4"
         style="font-variation-settings:normal;vector-effect:none;fill:#000000;fill-opacity:1;stroke:none;stroke-width:0.947866;stroke-linecap:butt;stroke-linejoin:miter;stroke-miterlimit:4;stroke-dasharray:none;stroke-dashoffset:0;stroke-opacity:1;-inkscape-stroke:none;stop-color:#000000"
         sodipodi:nodetypes="cascc" /></g><text
       xml:space="preserve"
       style="font-style:normal;font-variant:normal;font-weight:normal;font-stretch:normal;font-size:32px;line-height:0.9;font-family:Poppins;-inkscape-font-specification:Poppins;text-align:start;writing-mode:lr-tb;direction:ltr;text-anchor:start;fill:#000000;stroke-width:0.0295867;-inkscape-stroke:none"
       x="79.23671"
       y="48.727283"
       id="text1"><tspan
         sodipodi:role="line"
         id="tspan1"
         style="font-style:normal;font-variant:normal;font-weight:normal;font-stretch:normal;font-size:32px;font-family:Poppins;-inkscape-font-specification:Poppins;stroke-width:0.0295867"
         x="79.23671"
         y="48.727283" /></text></g><g
     inkscape:groupmode="layer"
     id="layer2"
     inkscape:label="Layer 2"><g
       transform="matrix(0.09100233,0,0,-0.08916947,2.3889804,432.38742)"
       fill="#000000"
       stroke="none"
       id="g5"><path
         d="m 4514,4675 c -277,-77 -505,-185 -689,-325 l -50,-38 -98,23 c -233,57 -549,80 -758,55 -177,-20 -187,-26 -126,-68 32,-21 38,-22 108,-12 174,26 523,7 725,-40 206,-48 406,-129 555,-225 83,-53 119,-56 119,-7 0,24 -12,35 -102,89 -114,67 -175,98 -260,133 -32,12 -58,26 -58,31 0,28 277,182 439,244 106,41 332,105 370,105 39,0 90,-36 107,-76 52,-123 57,-490 11,-704 -29,-132 -65,-250 -75,-250 -4,1 -29,32 -55,71 -51,74 -70,88 -96,72 -29,-19 -23,-43 28,-114 141,-193 257,-528 325,-944 15,-88 33,-199 41,-246 21,-124 21,-126 -22,-145 -70,-29 -198,-74 -250,-88 l -51,-14 -18,47 c -35,95 -126,224 -166,237 -22,7 -48,-12 -48,-35 0,-9 17,-35 38,-58 75,-82 146.3389,-230.9833 146.3389,-329.9833 0,-63 -42.3389,-151.0167 -98.3389,-200.0167 -109,-96 -242.919,-51.1369 -348,-2 -76.7519,35.8899 -136.8473,152 -161.8473,196 -16,27 -13.1527,105 -4.1527,158 16,106 61,163 174,220 48,24 55,31 52,54 -10,83 -209,-33 -273,-159 -31,-62 -45,-145 -36,-212 l 7,-56 -29,-6 c -16,-3 -49,-6 -73,-6 -67,0 -96,-15 -92,-48 l 3,-27 117,2 116,3 51,-69 c 88,-118 197.1695,-166.7971 291.1695,-179.7971 84,-11 246.8305,37.7971 304.8305,116.7971 46,61 79,169 72,227 l -6,43 152,50 c 127.3243,45.7804 271.4032,81.6192 255.2079,194.2854 -20.2682,141.0009 -24.6119,176.7451 -52.0996,326.9869 -34.4611,188.3577 -74.6225,376.54 -133.7683,558.6608 C 4882.3013,3278.844 4855,3338 4855,3338 l -33,74 c -38,85 -38,89 12,248 66,208 95,453 77,660 -21,241 -52,323 -141,368 -60,30 -111,28 -256,-13 z"
         id="path1-0"
         sodipodi:nodetypes="cccccccccsccscscccccccccccccscscaccccccccsccccccccccssacccccc" /><path
         d="M 1238.1208,2456.7018 C 1212.6613,2292.7253 1352,2250 1453,2210 l 57,-24 -6,-61 c -12,-114 31,-247 104,-321 62,-64 141,-98 234,-103 68,-3 82,0 127,24 27,15 64,42 82,59 40,39 101,131 126,191 21,52 20,52 142,30 182,-32 582,-65 786,-65 127,0 148,9 127,55 -11,25 -13,25 -134,25 -224,0 -660,37 -824,71 l -51,10 -5,99 c -4,86 -9,108 -37,164 -46,93 -140,171 -199,164 -21,-2 -28,-9 -30,-29 -3,-22 5,-31 53,-60 101,-61 143,-160 132,-308 -7,-91 -53,-192 -123,-270 -53,-59 -99,-82 -165,-83 -103,0 -187,52 -237,146 -25,47 -42.1862,66.5084 -42.1862,182.5084 0,121 16.1862,120.4916 48.1862,185.4916 18,37 55,92 83,122 55,61 63.0016,98.011 22,104 -47.9984,7.011 -129,-85 -180,-202 -25,-59 -24,-59 -133,-12 -73,31 -75,33 -78,70 -9,103 48,448 108,658 77,269 215,543 354,706 25,30 46,58 46,63 0,22 -22,49 -40,49 -22,0 -83,-68 -137,-151 -21,-32 -41,-59 -44,-59 -21,0 -52,367 -46,545 10,302 66,404 212,391 81,-8 226,-48 348,-96 116,-46 339,-160 344,-175 2,-6 -29,-21 -68,-34 -38,-12 -115,-45 -170,-72 -92,-47 -99,-52 -99,-80 0,-17 6,-32 15,-35 8,-4 66,17 128,44 113,52 247,99 345,122 l 54,12 -33,34 c -18,19 -39,34 -47,34 -8,0 -57,26 -110,57 -324,190 -703,303 -831,247 -65,-28 -118,-111 -146,-226 -36,-151 -29,-464 17,-756 l 21,-132 -49,-106 -49,-106 -44.8322,-114.7593 c -108.7795,-288.1995 -81.5036,-238.7255 -113.2397,-360.675 -18.438,-70.8498 -34.035,-142.6033 -44.7018,-215.0317 -7.8412,-53.2422 5.1556,-36.7773 -14.1055,-160.8322"
         id="path2"
         sodipodi:nodetypes="ccccccccccscsccccccccccssccscccccsscscccsccscccccsccccccccaac"
         style="color:#000000;font-style:normal;font-variant:normal;font-weight:normal;font-stretch:normal;font-size:medium;line-height:normal;font-family:sans-serif;font-variant-ligatures:normal;font-variant-position:normal;font-variant-caps:normal;font-variant-numeric:normal;font-variant-alternates:normal;font-variant-east-asian:normal;font-feature-settings:normal;font-variation-settings:normal;text-indent:0;text-align:start;text-decoration-line:none;text-decoration-style:solid;text-decoration-color:#000000;letter-spacing:normal;word-spacing:normal;text-transform:none;writing-mode:lr-tb;direction:ltr;text-orientation:mixed;dominant-baseline:auto;baseline-shift:baseline;text-anchor:start;white-space:normal;shape-padding:0;shape-margin:0;inline-size:0;clip-rule:nonzero;display:inline;overflow:visible;visibility:visible;isolation:auto;mix-blend-mode:normal;color-interpolation:sRGB;color-interpolation-filters:linearRGB;solid-color:#000000;solid-opacity:1;vector-effect:none;fill:#000000;fill-opacity:1;fill-rule:nonzero;stroke:none;stroke-linecap:butt;stroke-linejoin:miter;stroke-miterlimit:4;stroke-dasharray:none;stroke-dashoffset:0;stroke-opacity:1;-inkscape-stroke:none;color-rendering:auto;image-rendering:auto;shape-rendering:auto;text-rendering:auto;enable-background:accumulate;stop-color:#000000;stop-opacity:1"
         inkscape:path-effect="#path-effect15"
         inkscape:original-d="M 1238.1208,2456.7018 C 1212.6613,2292.7253 1352,2250 1453,2210 l 57,-24 -6,-61 c -12,-114 31,-247 104,-321 62,-64 141,-98 234,-103 68,-3 82,0 127,24 27,15 64,42 82,59 40,39 101,131 126,191 21,52 20,52 142,30 182,-32 582,-65 786,-65 127,0 148,9 127,55 -11,25 -13,25 -134,25 -224,0 -660,37 -824,71 l -51,10 -5,99 c -4,86 -9,108 -37,164 -46,93 -140,171 -199,164 -21,-2 -28,-9 -30,-29 -3,-22 5,-31 53,-60 101,-61 143,-160 132,-308 -7,-91 -53,-192 -123,-270 -53,-59 -99,-82 -165,-83 -103,0 -187,52 -237,146 -25,47 -42.1862,66.5084 -42.1862,182.5084 0,121 16.1862,120.4916 48.1862,185.4916 18,37 55,92 83,122 55,61 63.0016,98.011 22,104 -47.9984,7.011 -129,-85 -180,-202 -25,-59 -24,-59 -133,-12 -73,31 -75,33 -78,70 -9,103 48,448 108,658 77,269 215,543 354,706 25,30 46,58 46,63 0,22 -22,49 -40,49 -22,0 -83,-68 -137,-151 -21,-32 -41,-59 -44,-59 -21,0 -52,367 -46,545 10,302 66,404 212,391 81,-8 226,-48 348,-96 116,-46 339,-160 344,-175 2,-6 -29,-21 -68,-34 -38,-12 -115,-45 -170,-72 -92,-47 -99,-52 -99,-80 0,-17 6,-32 15,-35 8,-4 66,17 128,44 113,52 247,99 345,122 l 54,12 -33,34 c -18,19 -39,34 -47,34 -8,0 -57,26 -110,57 -324,190 -703,303 -831,247 -65,-28 -118,-111 -146,-226 -36,-151 -29,-464 17,-756 l 21,-132 -49,-106 -49,-106 -44.8322,-114.7593 c -108.7795,-288.1995 -81.5036,-238.7255 -113.2397,-360.675 -18.438,-70.8498 -34.035,-142.6033 -44.7018,-215.0317 -7.8412,-53.2422 5.1556,-36.7773 -14.1055,-160.8322" /><path
         d="m 2260,3253 c -37,-25 -48,-43 -66,-101 -20,-68 -6,-170 31,-218 55,-72 136,-59 180,29 78,156 -29,370 -145,290 z"
         id="path3-9" /><path
         d="m 3736,3205 c -38,-35 -57,-88 -58,-160 -1,-161 112,-252 198,-159 71,78 71,230 -1,308 -42,46 -97,50 -139,11 z"
         id="path4" /><path
         d="m 2695,3017 c -14,-11 -17,-22 -13,-55 18,-133 161,-195 267,-115 20,15 37,31 39,35 2,4 33,-11 69,-33 103,-63 200,-64 273,-2 58,48 61,153 5,153 -26,0 -38,-17 -50,-73 -7,-32 -37,-47 -98,-47 -50,0 -98,31 -126,81 -34,60 -80,59 -111,-1 -25,-49 -55,-70 -100,-70 -48,1 -69,19 -86,76 -19,63 -35,75 -69,51 z"
         id="path5"
         style="font-variation-settings:normal;opacity:1;vector-effect:none;fill:#000000;fill-opacity:1;stroke:none;stroke-width:1;stroke-linecap:butt;stroke-linejoin:miter;stroke-miterlimit:4;stroke-dasharray:none;stroke-dashoffset:0;stroke-opacity:1;-inkscape-stroke:none;stop-color:#000000;stop-opacity:1" /></g></g><g
     inkscape:groupmode="layer"
     id="layer3"
     inkscape:label="Layer 3" /></svg>
